<mxfile host="app.diagrams.net" modified="2021-08-09T08:23:57.767Z" agent="5.0 (Windows NT 10.0; Win64; x64) AppleWebKit/537.36 (KHTML, like Gecko) Chrome/92.0.4515.131 Safari/537.36" etag="qqpMXZA_JTibe4qNWGu9" version="14.9.2" type="github" pages="3">
  <diagram id="o1LOkz2FEjWGKA7yduEX" name="Context">
    <mxGraphModel dx="868" dy="393" grid="1" gridSize="10" guides="1" tooltips="1" connect="1" arrows="1" fold="1" page="1" pageScale="1" pageWidth="827" pageHeight="1169" math="0" shadow="0">
      <root>
        <mxCell id="0" />
        <mxCell id="1" parent="0" />
        <mxCell id="luxPa-7mYszQtJQc-dS4-5" style="edgeStyle=orthogonalEdgeStyle;rounded=0;orthogonalLoop=1;jettySize=auto;html=1;startArrow=none;" parent="1" source="luxPa-7mYszQtJQc-dS4-7" target="luxPa-7mYszQtJQc-dS4-6" edge="1">
          <mxGeometry relative="1" as="geometry">
            <mxPoint x="245" y="420" as="targetPoint" />
          </mxGeometry>
        </mxCell>
        <mxCell id="luxPa-7mYszQtJQc-dS4-1" value="Todo App&lt;br&gt;(Flask Web Server)" style="whiteSpace=wrap;html=1;aspect=fixed;fillColor=#dae8fc;strokeColor=#6c8ebf;" parent="1" vertex="1">
          <mxGeometry x="190" y="220" width="110" height="110" as="geometry" />
        </mxCell>
        <mxCell id="luxPa-7mYszQtJQc-dS4-3" style="edgeStyle=orthogonalEdgeStyle;rounded=0;orthogonalLoop=1;jettySize=auto;html=1;entryX=0.582;entryY=-0.018;entryDx=0;entryDy=0;entryPerimeter=0;" parent="1" source="luxPa-7mYszQtJQc-dS4-2" target="luxPa-7mYszQtJQc-dS4-1" edge="1">
          <mxGeometry relative="1" as="geometry">
            <Array as="points">
              <mxPoint x="254" y="120" />
              <mxPoint x="254" y="120" />
            </Array>
          </mxGeometry>
        </mxCell>
        <mxCell id="luxPa-7mYszQtJQc-dS4-2" value="" style="shape=actor;whiteSpace=wrap;html=1;" parent="1" vertex="1">
          <mxGeometry x="200" y="10" width="120" height="70" as="geometry" />
        </mxCell>
        <mxCell id="luxPa-7mYszQtJQc-dS4-4" value="Uses Web Browser to Access" style="text;html=1;align=center;verticalAlign=middle;resizable=0;points=[];autosize=1;strokeColor=none;" parent="1" vertex="1">
          <mxGeometry x="175" y="130" width="170" height="20" as="geometry" />
        </mxCell>
        <mxCell id="luxPa-7mYszQtJQc-dS4-6" value="Trello API" style="whiteSpace=wrap;html=1;aspect=fixed;" parent="1" vertex="1">
          <mxGeometry x="193.75" y="450" width="102.5" height="102.5" as="geometry" />
        </mxCell>
        <mxCell id="luxPa-7mYszQtJQc-dS4-7" value="Manages Card Data Using" style="text;html=1;align=center;verticalAlign=middle;resizable=0;points=[];autosize=1;strokeColor=none;" parent="1" vertex="1">
          <mxGeometry x="165" y="380" width="160" height="20" as="geometry" />
        </mxCell>
        <mxCell id="luxPa-7mYszQtJQc-dS4-8" value="" style="edgeStyle=orthogonalEdgeStyle;rounded=0;orthogonalLoop=1;jettySize=auto;html=1;endArrow=none;" parent="1" source="luxPa-7mYszQtJQc-dS4-1" target="luxPa-7mYszQtJQc-dS4-7" edge="1">
          <mxGeometry relative="1" as="geometry">
            <mxPoint x="245.0999999999999" y="450" as="targetPoint" />
            <mxPoint x="245" y="330" as="sourcePoint" />
          </mxGeometry>
        </mxCell>
      </root>
    </mxGraphModel>
  </diagram>
  <diagram id="xzkpj-EvYyRcvLxdAWos" name="Container">
    <mxGraphModel dx="868" dy="393" grid="1" gridSize="10" guides="1" tooltips="1" connect="1" arrows="1" fold="1" page="1" pageScale="1" pageWidth="827" pageHeight="1169" math="0" shadow="0">
      <root>
        <mxCell id="fw4zrGc0sTY1ZZVqRdD_-0" />
        <mxCell id="fw4zrGc0sTY1ZZVqRdD_-1" parent="fw4zrGc0sTY1ZZVqRdD_-0" />
        <mxCell id="gaWd36r07rqLopJNGwve-8" style="edgeStyle=orthogonalEdgeStyle;rounded=0;orthogonalLoop=1;jettySize=auto;html=1;exitX=0.5;exitY=1;exitDx=0;exitDy=0;entryX=0.5;entryY=0;entryDx=0;entryDy=0;" parent="fw4zrGc0sTY1ZZVqRdD_-1" target="gaWd36r07rqLopJNGwve-4" edge="1">
          <mxGeometry relative="1" as="geometry">
            <mxPoint x="275" y="410" as="sourcePoint" />
          </mxGeometry>
        </mxCell>
        <mxCell id="gaWd36r07rqLopJNGwve-7" style="edgeStyle=orthogonalEdgeStyle;rounded=0;orthogonalLoop=1;jettySize=auto;html=1;entryX=0.5;entryY=0;entryDx=0;entryDy=0;" parent="fw4zrGc0sTY1ZZVqRdD_-1" source="gaWd36r07rqLopJNGwve-3" edge="1">
          <mxGeometry relative="1" as="geometry">
            <mxPoint x="275" y="140" as="targetPoint" />
          </mxGeometry>
        </mxCell>
        <mxCell id="gaWd36r07rqLopJNGwve-3" value="" style="shape=actor;whiteSpace=wrap;html=1;" parent="fw4zrGc0sTY1ZZVqRdD_-1" vertex="1">
          <mxGeometry x="215" y="10" width="120" height="70" as="geometry" />
        </mxCell>
        <mxCell id="gaWd36r07rqLopJNGwve-4" value="Trello API" style="whiteSpace=wrap;html=1;aspect=fixed;" parent="fw4zrGc0sTY1ZZVqRdD_-1" vertex="1">
          <mxGeometry x="223.75" y="570" width="102.5" height="102.5" as="geometry" />
        </mxCell>
        <mxCell id="gaWd36r07rqLopJNGwve-9" value="Flask App&lt;br&gt;(contains python code)" style="whiteSpace=wrap;html=1;aspect=fixed;strokeColor=#6c8ebf;fillColor=#dae8fc;" parent="fw4zrGc0sTY1ZZVqRdD_-1" vertex="1">
          <mxGeometry x="235" y="400" width="80" height="80" as="geometry" />
        </mxCell>
        <mxCell id="gaWd36r07rqLopJNGwve-13" value="" style="edgeStyle=orthogonalEdgeStyle;rounded=0;orthogonalLoop=1;jettySize=auto;html=1;" parent="fw4zrGc0sTY1ZZVqRdD_-1" source="gaWd36r07rqLopJNGwve-10" target="gaWd36r07rqLopJNGwve-9" edge="1">
          <mxGeometry relative="1" as="geometry" />
        </mxCell>
        <mxCell id="gaWd36r07rqLopJNGwve-10" value="Gunicorn" style="whiteSpace=wrap;html=1;aspect=fixed;strokeColor=#6c8ebf;fillColor=#dae8fc;" parent="fw4zrGc0sTY1ZZVqRdD_-1" vertex="1">
          <mxGeometry x="235" y="260" width="80" height="80" as="geometry" />
        </mxCell>
        <mxCell id="gaWd36r07rqLopJNGwve-12" value="" style="edgeStyle=orthogonalEdgeStyle;rounded=0;orthogonalLoop=1;jettySize=auto;html=1;" parent="fw4zrGc0sTY1ZZVqRdD_-1" source="gaWd36r07rqLopJNGwve-11" target="gaWd36r07rqLopJNGwve-10" edge="1">
          <mxGeometry relative="1" as="geometry" />
        </mxCell>
        <mxCell id="gaWd36r07rqLopJNGwve-11" value="Docker Container" style="whiteSpace=wrap;html=1;aspect=fixed;strokeColor=#6c8ebf;fillColor=#dae8fc;" parent="fw4zrGc0sTY1ZZVqRdD_-1" vertex="1">
          <mxGeometry x="235" y="140" width="80" height="80" as="geometry" />
        </mxCell>
      </root>
    </mxGraphModel>
  </diagram>
  <diagram id="9zSRNuWWcRxYOH9QsqtW" name="Components">
    <mxGraphModel dx="868" dy="393" grid="1" gridSize="10" guides="1" tooltips="1" connect="1" arrows="1" fold="1" page="1" pageScale="1" pageWidth="827" pageHeight="1169" math="0" shadow="0">
      <root>
        <mxCell id="uJ1d91Cw7zrENgn4US1r-0" />
        <mxCell id="uJ1d91Cw7zrENgn4US1r-1" parent="uJ1d91Cw7zrENgn4US1r-0" />
        <mxCell id="xQ4I76fzpIagHeqbRZkI-0" style="edgeStyle=orthogonalEdgeStyle;rounded=0;orthogonalLoop=1;jettySize=auto;html=1;exitX=0.5;exitY=1;exitDx=0;exitDy=0;entryX=0.5;entryY=0;entryDx=0;entryDy=0;" parent="uJ1d91Cw7zrENgn4US1r-1" target="xQ4I76fzpIagHeqbRZkI-1" edge="1">
          <mxGeometry relative="1" as="geometry">
            <mxPoint x="281.25" y="280" as="sourcePoint" />
          </mxGeometry>
        </mxCell>
        <mxCell id="xQ4I76fzpIagHeqbRZkI-1" value="Trello API" style="whiteSpace=wrap;html=1;aspect=fixed;" parent="uJ1d91Cw7zrENgn4US1r-1" vertex="1">
          <mxGeometry x="230" y="760" width="102.5" height="102.5" as="geometry" />
        </mxCell>
        <mxCell id="xQ4I76fzpIagHeqbRZkI-2" value="Template(HTML template, Flask Template),&lt;br&gt;Models( one box),&lt;br&gt;Trello Client,&lt;br&gt;Files to represent the flask,&lt;br&gt;Routes(app constructor),&lt;br&gt;config file" style="whiteSpace=wrap;html=1;aspect=fixed;strokeColor=#6c8ebf;fillColor=#dae8fc;" parent="uJ1d91Cw7zrENgn4US1r-1" vertex="1">
          <mxGeometry x="150" y="270" width="330" height="330" as="geometry" />
        </mxCell>
        <mxCell id="xQ4I76fzpIagHeqbRZkI-3" value="" style="edgeStyle=orthogonalEdgeStyle;rounded=0;orthogonalLoop=1;jettySize=auto;html=1;" parent="uJ1d91Cw7zrENgn4US1r-1" source="xQ4I76fzpIagHeqbRZkI-4" target="xQ4I76fzpIagHeqbRZkI-2" edge="1">
          <mxGeometry relative="1" as="geometry" />
        </mxCell>
        <mxCell id="xQ4I76fzpIagHeqbRZkI-4" value="Gunicorn" style="whiteSpace=wrap;html=1;aspect=fixed;strokeColor=#6c8ebf;fillColor=#dae8fc;" parent="uJ1d91Cw7zrENgn4US1r-1" vertex="1">
          <mxGeometry x="275" y="110" width="80" height="80" as="geometry" />
        </mxCell>
      </root>
    </mxGraphModel>
  </diagram>
</mxfile>
